<svg xmlns="http://www.w3.org/2000/svg" width="47" height="50" fill="none" viewBox="0 0 47 50">
  <path fill="#5E3D00" d="m42.102 10.363-37.514 2.78A4 4 0 0 0 .975 17.98l5.391 24.868A4 4 0 0 0 10.276 46h28.512a4 4 0 0 0 3.966-3.482l3.61-27.648a4 4 0 0 0-4.262-4.507Z"/>
  <path fill="#fff" d="M21.552 36.464c.468.756 1.332 1.152 2.664 1.152 1.908 0 2.844-.792 2.844-2.376v-2.952h4.176c.756-.468 1.152-1.332 1.152-2.664 0-1.908-.792-2.844-2.376-2.844H27.06v-4.428c-.648-.612-1.512-.9-2.628-.9-1.908 0-2.88.864-2.88 2.592v2.736h-4.428c-.612.648-.9 1.512-.9 2.628 0 1.908.864 2.88 2.592 2.88h2.736v4.176Z"/>
</svg>
