<svg xmlns="http://www.w3.org/2000/svg" width="47" height="50" fill="none" viewBox="0 0 47 50">
  <path fill="#A16900" d="m42.102 10.363-37.514 2.78A4 4 0 0 0 .975 17.98l5.392 24.868A4 4 0 0 0 10.276 46h28.512a4 4 0 0 0 3.967-3.482l3.61-27.648a4 4 0 0 0-4.263-4.507Z"/>
  <path fill="#fff" d="M21.552 32.288h-2.736c-1.728 0-2.592-.96-2.592-2.88 0-1.104.3-1.98.9-2.628h4.428v-2.736c0-1.728.96-2.592 2.88-2.592 1.104 0 1.98.3 2.628.9v4.428h2.952c1.584 0 2.376.948 2.376 2.844 0 1.32-.384 2.208-1.152 2.664H27.06v2.952c0 1.584-.948 2.376-2.844 2.376-1.32 0-2.208-.384-2.664-1.152v-4.176Z"/>
</svg>
