<?xml version="1.0" encoding="utf-8"?>
<!-- Generator: Adobe Illustrator 24.3.2, SVG Export Plug-In . SVG Version: 6.00 Build 0)  -->
<svg version="1.1" id="Layer_1" xmlns="http://www.w3.org/2000/svg" xmlns:xlink="http://www.w3.org/1999/xlink" x="0px" y="0px"
	 viewBox="0 0 120 120" style="enable-background:new 0 0 120 120;" xml:space="preserve">
<style type="text/css">
	.st0{fill:#E7E7E7;}
</style>
<path class="st0" d="M91.18,53.13c-6.3,0.01-12.44-1.95-17.55-5.62v25.56c-0.01,12.84-10.42,23.24-23.25,23.23
	C37.54,96.3,27.14,85.89,27.14,73.05c0.01-12.84,10.42-23.24,23.25-23.23c1.06,0,2.13,0.07,3.18,0.22V62.9
	c-5.62-1.77-11.61,1.36-13.37,6.98c-1.77,5.62,1.36,11.61,6.98,13.37s11.61-1.36,13.37-6.98c0.32-1.03,0.49-2.11,0.49-3.2V23.11
	h12.58c-0.01,1.06,0.08,2.12,0.26,3.17l0,0c1.6,8.29,8.84,14.3,17.29,14.35L91.18,53.13z"/>
</svg>
