<?xml version="1.0" encoding="utf-8"?>
<!-- Generator: Adobe Illustrator 24.3.2, SVG Export Plug-In . SVG Version: 6.00 Build 0)  -->
<svg version="1.1" id="Layer_1" xmlns="http://www.w3.org/2000/svg" xmlns:xlink="http://www.w3.org/1999/xlink" x="0px" y="0px"
	 viewBox="0 0 120 120" style="enable-background:new 0 0 120 120;" xml:space="preserve">
<style type="text/css">
	.st0{fill:#E7E7E7;}
</style>
<path class="st0" d="M100.73,52.48c0-18.56-18.19-33.65-40.56-33.65S19.61,33.93,19.61,52.48c0,16.64,14.43,30.58,33.92,33.2
	c1.32,0.29,3.12,0.89,3.57,2.04c0.42,1.04,0.27,2.69,0.13,3.74c0,0-0.48,2.92-0.58,3.55c-0.18,1.04-0.82,4.1,3.51,2.24
	s23.35-14.06,31.86-24.07l0,0C97.91,66.59,100.73,59.91,100.73,52.48z M45.87,62.4c0,0.43-0.34,0.79-0.77,0.79h-11.4
	c-0.43-0.01-0.78-0.36-0.77-0.79v-0.01l0,0V44.31c0-0.43,0.34-0.79,0.77-0.79h2.88c0.43,0.01,0.78,0.36,0.77,0.79v14.36h7.74
	c0.43,0.01,0.78,0.36,0.77,0.79L45.87,62.4z M52.73,62.4c0,0.43-0.34,0.79-0.78,0.79c0,0,0,0,0,0h-2.88c-0.43,0-0.78-0.36-0.78-0.79
	c0,0,0,0,0,0v-18.1c0-0.43,0.34-0.79,0.78-0.79c0,0,0,0,0,0h2.87c0.43,0,0.78,0.36,0.78,0.79c0,0,0,0,0,0L52.73,62.4z M72.31,62.4
	c0,0.43-0.34,0.79-0.77,0.79h-2.87c-0.07,0-0.14-0.01-0.21-0.03h-0.01l-0.05-0.02l-0.02-0.01l-0.04-0.02l-0.04-0.02
	c-0.01,0-0.01-0.01-0.02-0.01l-0.05-0.03c0,0,0,0-0.01,0c-0.08-0.06-0.15-0.13-0.2-0.21l-8.11-11.2v10.75
	c0,0.43-0.34,0.79-0.78,0.79c0,0,0,0,0,0h-2.86c-0.43,0-0.78-0.36-0.78-0.79c0,0,0,0,0,0v-18.1c0-0.43,0.34-0.79,0.78-0.79
	c0,0,0,0,0,0h2.93h0.04h0.03h0.05h0.03l0.05,0.01l0.02,0.01l0.05,0.02l0.02,0.01l0.04,0.02l0.02,0.01l0.04,0.03l0.02,0.02l0.04,0.04
	l0.01,0.01c0.02,0.02,0.03,0.03,0.05,0.05l0,0l0.06,0.08l8.1,11.18V44.31c-0.01-0.43,0.34-0.79,0.77-0.79c0,0,0,0,0,0h2.88
	c0.43,0.01,0.78,0.36,0.77,0.79L72.31,62.4z M88.02,47.25c0,0.43-0.34,0.79-0.77,0.79c0,0,0,0,0,0h-7.75v3.06h7.74
	c0.43,0.01,0.78,0.36,0.77,0.79v2.94c0,0.43-0.34,0.79-0.77,0.79c0,0,0,0,0,0h-7.74v3.06h7.74c0.43,0.01,0.78,0.36,0.77,0.79v2.94
	c0.01,0.43-0.34,0.79-0.77,0.79c0,0,0,0,0,0H75.84c-0.43-0.01-0.78-0.36-0.77-0.79v-0.01l0,0V44.33l0,0v-0.02
	c0-0.43,0.34-0.79,0.77-0.79h11.39c0.43,0.01,0.78,0.36,0.77,0.79L88.02,47.25z"/>
</svg>
