<svg xmlns="http://www.w3.org/2000/svg" viewBox="0 0 38.3 37.9" enable-background="new 0 0 38.3 37.9"><style type="text/css">.st0{fill:none;stroke:#A4B1C4;stroke-width:2;stroke-linecap:round;stroke-miterlimit:10;} .st1{fill:none;stroke:#A4B1C4;stroke-width:2;stroke-linecap:round;stroke-linejoin:round;}</style><path class="st0" d="M17.6 18.8h13.9M17.6 25h13.9"/><path class="st1" d="M11.8 15.3v13.2c0 1.8 1.5 3.3 3.3 3.3h10.9l5.1 5.1v-5.1h2.9c1.8 0 3.3-1.5 3.3-3.3v-13.2c0-1.8-1.5-3.3-3.3-3.3h-18.9c-1.8-.1-3.2 1.3-3.3 3.1v.2zM26.5 11v-6.7c.1-1.8-1.3-3.2-3.1-3.3h-19.099999999999998c-1.8 0-3.3 1.5-3.3 3.3v13.2c0 1.8 1.5 3.3 3.3 3.3h1.9v5.1l5.1-5.1"/></svg>