<?xml version="1.0" encoding="utf-8"?>
<!-- Generator: Adobe Illustrator 24.3.2, SVG Export Plug-In . SVG Version: 6.00 Build 0)  -->
<svg version="1.1" id="Layer_1" xmlns="http://www.w3.org/2000/svg" xmlns:xlink="http://www.w3.org/1999/xlink" x="0px" y="0px"
	 viewBox="0 0 120 120" style="enable-background:new 0 0 120 120;" xml:space="preserve">
<style type="text/css">
	.st0{fill:#E7E7E7;}
</style>
<g>
	<path class="st0" d="M41,94.6h11.2c1.5-0.4,2.4-0.9,2.7-1.7l2-6.8H43.6L41,94.6z M45.1,91.7l0.9-3c0-0.1,0.1-0.2,0.2-0.2l0.3-0.2
		c0.1-0.1,0.2-0.1,0.4-0.1h5.5c0.2,0,0.4,0.1,0.5,0.2l0.2,0.2c0.1,0.1,0.1,0.2,0.1,0.3l-0.9,3c0,0.1-0.1,0.1-0.1,0.2
		c-0.1,0.1-0.3,0.2-0.5,0.3c-0.1,0-0.2,0.1-0.3,0.1h-5.4c-0.2,0-0.4-0.1-0.5-0.2l-0.2-0.2C45.1,92,45.1,91.9,45.1,91.7z"/>
	<path class="st0" d="M42.3,83.8l0.3-0.2c0.1-0.1,0.2-0.1,0.3-0.1h0.7c0.1,0,0.1,0,0.2,0c0.2,0.1,0.4,0.2,0.5,0.3
		c0.2,0.3,0,0.5-0.1,0.7c0,0.1,0,0.1-0.1,0.1h13.1c0.1-0.6,0.3-1,0.6-1.1c0.2-0.1,0.4-0.1,0.5-0.1c0.2,0,0.3,0,0.4,0l0.5-1.9
		c-0.5-0.2-0.7-0.4-0.8-0.7c-0.3-1.2-0.5-2.3-0.5-3.2c0-0.3,0-0.5,0-0.6h-9.2c-0.3,0.3-1,1.2-1,1.2c-2.4,3.2-3.5,3.7-4.3,3.5
		c-0.3-0.1-0.4-0.3-0.4-0.5l1.2-4.1h-9l-5.4,17.5h6.7c1.3,0,2.6-0.8,2.8-1.4l2.8-9.3C42.1,83.9,42.2,83.8,42.3,83.8z M48.3,82.1
		c0,0,1.3-1.6,1.3-1.5c1-1.4,1.3-1.6,1.7-1.5h2.3c0.3,0,0.5,0.1,0.5,0.3l0.6,2.9c0,0.1,0,0.2-0.1,0.3c-0.1,0.1-0.3,0.1-0.4,0.1h-5.5
		c-0.2,0-0.4-0.1-0.5-0.2C48.2,82.4,48.2,82.3,48.3,82.1z M40.2,79.2L36,92.8c0,0,0,0.1,0,0.1c-0.1,0.2-0.3,0.3-0.6,0.4
		c-0.1,0-0.2,0-0.3,0h-0.4c-0.2,0-0.3-0.1-0.5-0.2L34,93c-0.1-0.1-0.1-0.2-0.1-0.3L38.1,79c0-0.1,0.1-0.2,0.2-0.2l0.3-0.2
		c0.1-0.1,0.2-0.1,0.3-0.1h0.5c0.2,0,0.3,0.1,0.4,0.2l0.2,0.2C40.2,79,40.2,79.1,40.2,79.2z"/>
	<path class="st0" d="M67.9,94.7l0.5-1.8c-1.2-0.1-1.6-0.2-1.8-0.4c-0.1-0.1-0.1-0.1-0.1-0.2L65.7,91c0-0.1-0.1-0.2,0-0.2l0-0.2
		c0-0.1,0.1-0.1,0.1-0.2l2.8-2.6l1.7-6.4c0-0.1,0.1-0.2,0.2-0.2l0.1,0c0.1-0.1,0.4-0.2,0.6-0.3l0.5-1.9c-0.3-0.1-0.5-0.3-0.5-0.5
		c0-0.1,0-0.1,0-0.2l0.4-1.4h-3.1L68,78.6c0,0.1-0.1,0.2-0.2,0.2l-0.3,0.2c-0.1,0.1-0.2,0.1-0.3,0.1h-0.6c-0.2,0-0.3-0.1-0.4-0.2
		l-0.2-0.2c-0.1-0.1-0.1-0.2-0.1-0.3l0.4-1.3h-3.1l-0.4,1.5c0,0.1-0.1,0.2-0.2,0.2L62.2,79c-0.1,0.1-0.2,0.1-0.3,0.1
		c-0.2,0-0.3,0-0.3,0L61,81c0.4,0.1,0.8,0.3,0.8,0.6c0,0,0,0.1,0,0.1L60,88l0,0.2l1.6,2.4c0.1,0.1,0.1,0.2,0,0.3l0,0.1
		c0,0.1-0.1,0.1-0.1,0.2c-1.9,1.7-2.7,1.9-3.2,1.8c-0.2,0-0.3-0.1-0.4-0.1c-0.1,0-0.2,0-0.2,0l-0.5,1.8h3.1c0.9-0.3,1.6-0.7,2.1-1.2
		c0.1-0.1,0.3-0.2,0.4-0.2H63c0.2,0,0.4,0.1,0.5,0.2c0.5,0.7,1,1.1,1.5,1.2H67.9z M64.5,88.3h-0.2c-0.1,0-0.3,0-0.4-0.1
		c-0.3-0.2-0.5-0.5-0.5-0.8c0,0,0-0.1,0-0.1l1.6-5.7c0-0.1,0.1-0.2,0.2-0.2l0.3-0.2c0.1-0.1,0.2-0.1,0.3-0.1h0.6
		c0.2,0,0.3,0.1,0.4,0.2l0.2,0.2c0.1,0.1,0.1,0.2,0.1,0.3l-1.6,5.8c0,0,0,0.1,0,0.1c-0.2,0.3-0.4,0.5-0.8,0.7
		C64.7,88.3,64.6,88.3,64.5,88.3z"/>
	<path class="st0" d="M88.2,77.1H74.3l-1.7,6.3c0,0.1-0.1,0.1-0.1,0.2c-0.2,0.2-0.5,0.3-0.8,0.4l-0.6,2c0.3,0.1,0.4,0.3,0.5,0.4
		c0,0.1,0.1,0.2,0,0.2L70,92.8h9.6c0.2,0,0.4,0,0.6,0.2c0.1,0.1,0.1,0.3,0.1,0.3c0,0.1-0.1,0.3-0.4,0.3c-0.1,0-0.2,0-0.3,0h-1.2
		l-0.1,1c4.7,0.1,4.3-0.1,4.5-0.2c0,0,0.1-0.1,0.1-0.1c0.8-0.3,1-0.6,1-1.3c0,0,0-0.1,0-0.1c0.1-0.4,0.5-0.2,1-0.3l0.5-1.9
		c-0.3-0.1-0.6-0.2-0.7-0.5c0,0,0-0.1,0-0.1l1-3.7c0-0.1,0.1-0.2,0.2-0.2l0.2-0.1c0.1,0,0.2-0.1,0.3-0.1c0.2,0,0.3,0,0.4-0.1
		l0.5-2.1c-0.4-0.1-0.7-0.3-0.7-0.6c0,0,0-0.1,0-0.1L88.2,77.1z M82.6,86.7l-1,3.8c-0.1,0.2-0.3,0.3-0.6,0.3h-0.4
		c-0.2,0-0.9-0.1-1-0.2l0,0c-0.1-0.1-0.1-0.2-0.1-0.3c0,0,0-2.4,0-2.5c0-0.2,0-0.3,0-0.4h-2.4L77,90.6c0,0.2-0.3,0.4-0.6,0.4h-1.9
		c-0.2,0-0.3-0.1-0.4-0.2l-0.1-0.1c-0.1-0.1-0.1-0.2-0.1-0.3l1-3.8c0-0.1,0.1-0.2,0.2-0.2l0.3-0.2c0.1-0.1,0.2-0.1,0.4-0.1h6.1
		c0.2,0,0.4,0.1,0.5,0.2l0.2,0.2C82.6,86.4,82.6,86.6,82.6,86.7z M84.5,79.7l-1,3.7c0,0.1-0.1,0.2-0.2,0.2L83,83.8
		c-0.1,0.1-0.2,0.1-0.4,0.1h-0.2c-0.2,0-0.9-0.1-1-0.2l-0.1-0.1c-0.1-0.1-0.1-0.2-0.1-0.3l0-2.7c0,0,0,0,0-0.1c0,0,0,0,0,0h-2.2
		c0,2.2,0,2.7-0.1,3c-0.1,0.2-0.3,0.3-0.6,0.3h-2c-0.2,0-0.3-0.1-0.4-0.2l0,0c-0.1-0.1-0.1-0.2-0.1-0.3l1-3.8c0-0.1,0.1-0.2,0.2-0.3
		l0.3-0.2c0.1-0.1,0.2-0.1,0.3-0.1h6.1c0.2,0,0.3,0,0.4,0.1l0.2,0.2C84.4,79.4,84.5,79.6,84.5,79.7z"/>
	<path class="st0" d="M113.4,88.3C113.4,88.3,113.4,88.3,113.4,88.3c-0.1,0-0.1,0-0.1,0C113.3,88.2,113.4,88.3,113.4,88.3z"/>
	<path class="st0" d="M110.2,80.6c0-0.1,0.1-0.2,0.2-0.2l0.3-0.1c0.1-0.1,0.2-0.1,0.3-0.1h4.7l0.5-2h-4.5c-0.1,0-0.2,0-0.3,0
		c-0.3-0.1-0.6-0.4-0.4-0.8c0-0.1,0-0.1,0-0.1h-3.3c-0.1,0.6-0.3,0.8-0.6,1c-0.1,0.1-0.3,0.1-0.5,0.1H102l-0.5,2h4.7
		c0.2,0,0.3,0,0.4,0.1l0.2,0.1c0.1,0.1,0.2,0.2,0.2,0.3l-0.3,1.2c0,0.1-0.1,0.2-0.2,0.2l-0.3,0.2c-0.1,0.1-0.2,0.1-0.4,0.1h-4.9
		l-0.5,2h8.5c0.2,0,0.3,0,0.4,0.1l0.2,0.1c0.1,0.1,0.2,0.2,0.2,0.3l-0.2,0.8c0,0.1-0.1,0.2-0.2,0.2l-0.3,0.1
		c-0.1,0.1-0.2,0.1-0.3,0.1h-9.3l-0.6,2.1h9.1c0.2,0,0.4,0.1,0.5,0.2l0.2,0.2c0.1,0.1,0.1,0.2,0.1,0.3l-0.8,3.1
		c-0.1,0.2-0.3,0.6-1.1,0.7c0,0-0.1,0-0.1,0h-1.4c0,0-0.1,0-0.1,0c-0.2,0-0.4-0.1-0.6-0.2c-0.2-0.2-0.1-0.6,0-0.8
		c0.1-0.2,0.1-0.3,0.2-0.3c0,0-0.1,0-0.1,0c-0.4,0-1.4,0-1.5-1c0-0.2,0-0.3-0.1-0.4h-4.6l0,0.1c0.1,0.2,0.2,0.7,0.3,0.7
		c0.3,1.2,0.7,1.8,1.6,2.2c0.6,0.3,1.3,0.4,2.2,0.3c0.6-0.1,1.1,0,1.3,0.3c0.4,0.4,0.1,0.9-0.1,1.1c0,0.1,0,0.1-0.1,0.2
		c0.7,0,5,0,5,0s0.1,0,0.1-0.1c1.5-0.3,1.9-0.9,2.1-1.5l1.1-4.4c0,0,0-0.1,0.1-0.1c0.3-0.3,0.7-0.4,1.2-0.4c0.2,0,0.7,0.1,0.9,0.1
		l0.5-2.1c-0.7,0-1.5-0.1-1.8-0.3c-0.1-0.1-0.1-0.2-0.1-0.4l0.2-0.7c0-0.1,0.1-0.1,0.1-0.2c0.4-0.3,0.8-0.3,1-0.3
		c0.2,0,0.7,0.1,0.8,0.1l0.5-2h-4.9c-0.2,0-0.3-0.1-0.4-0.1l-0.2-0.2c-0.1-0.1-0.2-0.2-0.1-0.3L110.2,80.6z"/>
	<path class="st0" d="M97.2,81.7c0,0,0-0.1,0.1-0.1c0.1-0.1,0.4-0.5,1.2-0.4c0.2,0,0.3,0,0.4,0l0.5-1.9c-0.7,0-1.1,0-1.4-0.2
		c-0.1-0.1-0.1-0.3-0.1-0.4l0.4-1.7H95l-0.5,1.8c0,0.1-0.1,0.2-0.2,0.2l-0.3,0.1c-0.1,0-0.2,0.1-0.3,0.1H93c-0.2,0-0.3,0-0.4-0.1
		c-0.1-0.1-0.1-0.2-0.1-0.3l0.1-0.3c0-0.1,0.1-0.1,0.1-0.2l0.2-0.5h-1.7c0,0,0,0.1,0,0.2c0,0,0,0,0,0.1c-0.8,2.5-1.3,3.3-1.7,3.6
		l0,1.8h0.2c0.8-0.1,1.4-0.6,1.8-1.3c0.1-0.5,0.2-0.7,0.5-0.9c0.2-0.1,0.4-0.1,0.6-0.1c0,0-0.1,0-0.1,0H93c0.2,0,0.3,0.1,0.4,0.1
		l0.2,0.2c0.1,0.1,0.1,0.2,0.1,0.3l-0.6,2.5c0,0,0,0.1-0.1,0.1c-2.8,3.3-4.3,3.7-5,4l-0.5,2.5c0.1,0,0.2,0,0.2,0l1.2-0.1
		c0.6-0.2,1.1-0.3,1.3-0.6c0.2-0.1,0.6-0.2,0.9-0.1c0.2,0.1,0.3,0.2,0.3,0.4l-1.1,4h3.5l2.2-8.4c0,0,0-0.1,0-0.1
		c0.1-0.2,0.4-0.5,1.2-0.4c0.2,0,0.3,0,0.4,0l0.5-1.9c-0.7,0-1.1,0-1.3-0.2c-0.1-0.1-0.1-0.3-0.1-0.4L97.2,81.7z"/>
	<path class="st0" d="M98.5,81.3C98.5,81.3,98.5,81.3,98.5,81.3C98.5,81.3,98.5,81.3,98.5,81.3C98.5,81.3,98.5,81.3,98.5,81.3z"/>
	<path class="st0" d="M97.4,85.8C97.4,85.8,97.3,85.8,97.4,85.8C97.3,85.8,97.3,85.8,97.4,85.8C97.3,85.8,97.4,85.8,97.4,85.8z"/>
	<path class="st0" d="M9.8,90.5c0,0,0.2-0.2,0.3-0.3c0.1-0.1,0.2-0.1,0.3-0.1c0,0,13.9,0,13.9,0c1.6,0,1.1,0,1.3,0
		c0.1,0,0.1-0.1,0.2-0.1c2-0.3,3.1-1,3.5-2.1l3.2-10.8H9.6C9,78.8,5.3,90.7,5.3,90.7l-0.6,1.7c0.2,1.5,1.1,2.2,2.7,2.3h19.3
		c0,0,0.8,0.1,1.6-0.5c0.7-0.5,0.8-1.5,0.8-1.5H10.9c-0.1,0-0.1,0-0.2,0c-0.2,0-0.4,0-0.5-0.1C10,92.5,9.5,92,9.6,91.1
		C9.6,91.1,9.6,90.7,9.8,90.5z M20.1,87.2l2.4-7.3c0-0.1,0.1-0.2,0.2-0.2l0.3-0.2c0.1-0.1,0.2-0.1,0.3-0.1h3.4
		c0.2,0,0.3,0.1,0.4,0.1l0.2,0.2c0.1,0.1,0.1,0.2,0.1,0.3l-2.1,6.6c-0.1,0.4-0.5,0.9-1.7,1.2c0,0,0.4,0,0.4,0h-3.1
		c-0.1,0-0.3,0-0.4-0.1l-0.2-0.2C20.1,87.5,20,87.3,20.1,87.2z M10.9,87.2l2.5-7.3c0-0.1,0.1-0.2,0.2-0.2l0.3-0.2
		c0.1-0.1,0.2-0.1,0.3-0.1h3.2c0.2,0,0.3,0.1,0.4,0.1l0.2,0.2c0.1,0.1,0.1,0.2,0.1,0.3l-2.4,7.3c0,0.1-0.1,0.2-0.2,0.2l-0.3,0.2
		c-0.1,0-0.2,0.1-0.3,0.1h-3.2c-0.1,0-0.3,0-0.4-0.1L11,87.6C10.9,87.5,10.8,87.3,10.9,87.2z"/>
	<path class="st0" d="M72,96.5h-7.8c0.1,0.1,0.1,0.2,0.2,0.2c7,8.4,19.5,9.5,27.9,2.4c0.1-0.1,0.2-0.2,0.3-0.3
		C86.2,102.8,77.7,101.8,72,96.5z"/>
	<path class="st0" d="M-0.3,26.2c2.6-0.3,5.8-0.5,9.3-0.5c2.1,0.1,4.6,0.3,7.4,0.6l8.5,1.4c33.8,5.9,12.9,20.1,12.9,20.1l-1.6,1.3
		c11.4-6.8,20-6.8,20-6.8c8.9,0.5,2.7,12.4,2.7,12.4c7.1-7.2,14.4-8.1,18.5-8c1,0.1,2,0.4,2.8,0.8c-0.2,0.3-1.6,1.8-1.9,2L72.2,51
		c-0.5,0.5,4.1,0,3.6,0.4c-0.6,0.5,0.3,0.3-0.4,0.7c-0.6,0.4-5,0.7-5.6,1c-0.6,0.3,3.2,0.6,2.6,0.8c-0.6,0.3-0.4,0.3-0.4,0.2
		c0,0-0.2,0-0.4,0.1c-0.6,0.2-6.8,0.3-7.4,0.4c-0.5,0.1,3.1,1.1,2.6,1.3c-5.7,1.4-6.3,3.2-14.4,0.7c-0.6,0-4-2.9-4.5-3
		c-0.5,0,1.7,2.8,1.3,2.8c-0.4,0-5.6-2.5-6-2.5c-1.3-0.1,2.7,2.2,2.7,2.2c-0.9-0.2-1.3-0.5-2.2-0.6c-0.6-0.1-5.5-1.9-6.1-1.9
		c-0.3,0,2.8,1.8,2.5,1.8c-1.2-0.1-2-0.2-3-0.2c-0.7,0-5.5-1.2-6.2-1.2c-0.6,0,2.9,1.4,2.3,1.5c-2.9,0.3-4.7,0.9-4.7,0.9
		c-3.9,1.4-0.9,0.9-0.9,0.9c13-2.2,17.6,1,23.6,2.9c13.5,4.2,27.2-4.2,27.2-4.2l-0.9,1.7c0.2,1.7-1.7,3.4-1.7,3.4l-1.2,0.1l-0.9-0.7
		l-1.1,1.1l-0.3,1.9c-0.1,0.3-0.3,1.2-0.5,2.2c-1.8,0.8-3.5,1.8-5.1,3.1c-2.2,1.8-3.9,4.1-5.1,6.5h6.6c0.9-1.6,2.1-3.1,3.6-4.4
		c7-5.9,17.7-4.7,23.9,2.7c0.5,0.6,0.9,1.1,1.3,1.7c0.3,0.5,0.6,0.9,0.8,1.4c-0.2-0.5-0.4-0.9-0.6-1.4c-0.7-1.4-1.6-2.8-2.6-4
		c-4.6-5.5-11.7-7.9-18.3-6.8c0-1.5,1.9-2.5,1.9-2.5l3-0.2c3.7-1.6,5.3-5,5.3-5c0.5-1.8,0.4-3.1,0.3-3.8l4.1-2.9
		c0.4,0,0.7-0.1,0.9-0.1l1.4,0l1,0.2l0.6-0.2l0.3,0l0.1-0.1l4.7-1.7l-0.3,1.8l1.4-1.1c0.1,0.2,0.5,0.5,0.2,1.4c-0.1,0.4,1-0.8,1-0.8
		l0.4-0.5c0.1,0.4,0.1,0.6,0.1,0.6l0.8-2.2l-2.4-2l-4.9,0.6c-0.1,0.1-0.2,0.2-0.4,0.3c0.5-0.9,0.9-2,0.9-2l0.2-2.8l1.5-2l0.8-0.3
		c0.3,0.2,0.8,0.2,1.2,0.2c0.3,0.1,0.7,0.2,0.9,0.5l0.4,0.2l1.1-0.9c0,0-0.3,0-0.7,0c0,0,0,0,0,0c0,0,0,0-0.1,0c-0.1,0-0.2,0-0.4,0
		l0-0.2l-0.4,0.1c-0.6-0.4-1.3-1.3-1.3-1.3l0.9-1l1.3,0c0.1,0,0.5,0,0.5,0.1l0.4,0.6l0.1-0.4c0.7,0.1,0.6,0.7,0.6,0.7l0.2-0.3
		c0,0-0.4-2-1.1-1.7c-0.4,0.2-1.7-0.3-2.7-0.8L99.1,34l-4.4,0.1c-0.4-0.1-2.9,0-4.5,0.6c0,0,2.6-0.3,5.7,0.7
		c0.1,0.1,0.3,0.1,0.4,0.1c-0.9,0.3-6.3,1.4-7.1,1.4c-1.2,0,3.7,0.4,6.3,0.2l-1.7,1.6c-0.2,0.2-2.9,1.4-3.4,1.8
		c-0.7,0.3,1.8-0.2,1.8-0.2c-0.5,0.3-2.1,0.9-2.7,1c0,0,0.5,0.6,1.2,0.8c-1,0.3-2.5,0.6-2.9,0.5c0,0,0.8,0.2,1.3,0.5
		c-0.8,0.1-1.5,0.3-2.1,0.4c-0.6-0.7-1.6-2.1-1.5-3.4l4.5-9.9c0.7,1.4,1.7,2.3,1.3,1.8c-0.3-0.4-0.6-1.5-0.8-2.3l-0.1-0.5l1.4-3.1
		l0.2-0.1l0.3,0l0.5,0.3c0.3,0.4,0.8,1.2,1.1,1.5c0.2,0.6,0.5,1.4,0.8,1.9c0,0-0.5-2-0.2-3.2c-1.2-0.6-1.9-2.9-1.9-2.9l-1,0.4
		c-0.4,0-0.9-0.1-1.1-0.1c-0.7-0.4-1.4-0.7-1.8-0.8c-2.9-1.5-11.6-5.5-22.6-7.5c-13.6-2.4-47.8-2.7-55.9-1.5c-8.1,1.2-4.8,1-4.8,1
		S20.9,17,35,21.8c-14.3,1.2-28.6,2.7-28.6,2.7L-0.3,26.2z M100.3,35.6l-0.2,0.2L98.9,36l-1.3-1L100.3,35.6z M75.4,62.8
		C75.4,62.8,75.4,62.8,75.4,62.8l-0.9,1.1C75,63.3,75.4,62.8,75.4,62.8z"/>
</g>
</svg>
