<svg xmlns="http://www.w3.org/2000/svg" width="72" height="136.062" viewBox="0 0 72 136.062"><defs><style>.cls-1 { fill: #fff; fill-rule: evenodd; }</style></defs><path class="cls-1" d="M1090.34 749.851h-21.65v-23.629h21.62c0-6.518-.35-12.692 0-18.828a60.33 60.33 0 0 1 2.65-15.016 24.691 24.691 0 0 1 15.96-15.511 65.8 65.8 0 0 1 31.48-1.715v22.638a93.066 93.066 0 0 0-12.63 0 10.864 10.864 0 0 0-10.54 10.329c-.27 5.792 0 11.624 0 17.874h23.47c-1.21 7.622-2.12 15.016-3.6 22.219-.23 1.143-1.06 1.6-3.11 1.6h-16.65v60.254h-27v-60.215z" transform="translate(-1068.69 -674)"/></svg>