<?xml version="1.0" encoding="utf-8"?>
<!-- Generator: Adobe Illustrator 25.4.1, SVG Export Plug-In . SVG Version: 6.00 Build 0)  -->
<svg version="1.1" id="Shape_526_00000097470671646125011380000016825264787332461214_"
	 xmlns="http://www.w3.org/2000/svg" xmlns:xlink="http://www.w3.org/1999/xlink" x="0px" y="0px" viewBox="0 0 500 500"
	 style="enable-background:new 0 0 500 500;" xml:space="preserve">
<style type="text/css">
	.st0{fill:#636363;}
</style>
<g id="Shape_526">
	<g>
		<path class="st0" d="M449.91,208c-3.3-10.75-13.56-18.42-25.03-18.42c-2.44,0-4.87,0.35-7.3,1.03
			c-6.61,2.05-12.18,6.32-15.65,12.29c-3.3,5.97-4,12.96-2.09,19.45c16,53.91,0.87,112.08-39.64,151.83
			c-29.38,28.82-68.66,44.86-110.56,44.86c-41.89,0-81.18-16.04-110.56-44.86c-61.02-59.9-61.02-157.29,0-217.19
			c29.38-29.01,68.67-44.86,110.56-44.86c22.25,0,43.81,4.43,63.45,13.15l-25.21,4.76c-6.78,1.21-12.69,5.13-16.52,10.75
			c-4,5.64-5.39,12.45-4,19.12c2.26,12.1,13.04,20.82,25.56,20.82c1.56,0,3.3-0.19,4.87-0.54l85.7-16.2h0.18
			c6.79-1.19,12.69-5.11,16.69-10.75c1.05-1.52,1.92-3.4,2.61-5.11c0.52-1.19,0.87-2.4,1.04-3.57c0.53-1.89,0.7-3.78,0.7-5.81
			c0-0.7,0-1.54-0.17-2.4c0.17-0.84,0-1.7-0.18-2.4l-16.51-84.08c-2.43-12.12-13.21-20.82-25.55-20.82c-1.74,0-3.48,0.16-5.05,0.51
			c-6.77,1.19-12.69,5.13-16.68,10.73c-3.83,5.64-5.39,12.47-4,19.28l4.35,21.85c-27.98-13.29-59.1-20.47-91.27-20.47
			c-55.8,0-108.13,21.33-147.59,59.88c-81.18,79.83-81.18,209.66,0,289.51c39.46,38.56,91.79,59.88,147.59,59.88
			c55.8,0,108.13-21.31,147.59-59.88C451.13,357.46,471.29,280,449.91,208z"/>
	</g>
</g>
</svg>
