<svg xmlns="http://www.w3.org/2000/svg" width="115.81" height="127.375" viewBox="0 0 115.81 127.375"><defs><style>.cls-1 { fill: #fff; fill-rule: evenodd; }</style></defs><path class="cls-1" d="M1162.5 702.639a28.342 28.342 0 0 0-49.99-15.822l-22.17 26.508a29.064 29.064 0 0 0-2.05 2.77 28.348 28.348 0 0 0-4.48 18c.06.707.15 1.412.26 2.093a28.887 28.887 0 0 0 1.71 6.161 28.507 28.507 0 0 0 8.05 11.071l.43.355.17.132a6.294 6.294 0 0 0 7.84-9.848l-.03-.027-.33-.269a15.728 15.728 0 0 1-5.24-8.63 16.017 16.017 0 0 1-.36-4.581 15.82 15.82 0 0 1 3.47-8.9l.19-.225 22.17-26.509a15.559 15.559 0 0 1 9.41-5.431q.63-.11 1.32-.171a15.867 15.867 0 0 1 13.47 25.988l-15.16 18.126a6.315 6.315 0 0 0-1.38 5.118 6.274 6.274 0 0 0 11 2.989l15.17-18.126a28.345 28.345 0 0 0 6.53-20.772zm-37.18 41.869a28.92 28.92 0 0 0-1.71-6.161 28.514 28.514 0 0 0-8.05-11.071l-.6-.487a6.271 6.271 0 0 0-9.04 1.292 6.339 6.339 0 0 0 1.2 8.556l.03.028.33.269a15.721 15.721 0 0 1 5.24 8.63 16.012 16.012 0 0 1 .36 4.581 15.818 15.818 0 0 1-3.48 8.91l-.18.216-22.17 26.508a15.554 15.554 0 0 1-9.41 5.431q-.63.11-1.32.171a15.867 15.867 0 0 1-13.47-25.988l15.16-18.126a6.315 6.315 0 0 0 1.38-5.118 6.274 6.274 0 0 0-11-2.989l-15.17 18.127a28.534 28.534 0 0 0 3.49 40.1l.43.355a28.308 28.308 0 0 0 39.54-3.858l22.17-26.508a29.064 29.064 0 0 0 2.05-2.77 28.343 28.343 0 0 0 4.48-18c-.06-.712-.15-1.417-.26-2.098z" transform="translate(-1046.78 -676.656)"/></svg>