<?xml version="1.0" encoding="utf-8"?>
<!-- Generator: Adobe Illustrator 24.3.2, SVG Export Plug-In . SVG Version: 6.00 Build 0)  -->
<svg version="1.1" id="Layer_1" xmlns="http://www.w3.org/2000/svg" xmlns:xlink="http://www.w3.org/1999/xlink" x="0px" y="0px"
	 viewBox="0 0 120 120" style="enable-background:new 0 0 120 120;" xml:space="preserve">
<style type="text/css">
	.st0{fill:#E7E7E7;}
</style>
<path class="st0" d="M100.87,37.08c0.62-2.04,0-3.54-2.99-3.54h-9.89c-2.51,0-3.67,1.3-4.3,2.73c0,0-5.03,11.95-12.15,19.72
	c-2.3,2.25-3.35,2.96-4.61,2.96c-0.62,0-1.54-0.72-1.54-2.76V37.08c0-2.45-0.73-3.54-2.83-3.54H47.02c-1.57,0-2.51,1.14-2.51,2.22
	c0,2.33,3.56,2.86,3.93,9.4v14.2c0,3.12-0.58,3.68-1.83,3.68c-3.35,0-11.51-12.01-16.34-25.74c-0.95-2.67-1.9-3.74-4.43-3.74h-9.89
	c-2.82,0-3.39,1.3-3.39,2.73c0,2.55,3.35,15.22,15.6,31.98C36.32,79.7,47.83,85.9,58.31,85.9c6.29,0,7.07-1.38,7.07-3.74v-8.67
	c0-2.76,0.59-3.31,2.59-3.31c1.46,0,3.98,0.72,9.85,6.24c6.7,6.54,7.81,9.47,11.58,9.47h9.89c2.82,0,4.24-1.38,3.42-4.1
	c-0.89-2.7-4.1-6.64-8.34-11.3c-2.3-2.66-5.76-5.52-6.81-6.95c-1.47-1.84-1.04-2.65,0-4.29C87.56,59.25,99.61,42.7,100.87,37.08z"/>
</svg>
