<svg xmlns="http://www.w3.org/2000/svg" viewBox="0 0 75.94 75.9">
  <defs>
    <style>
      .cls-1 {
        fill: #a4a6a9;
      }
    </style>
  </defs>
  <path class="cls-1" d="M47.81,11.33v4.6a3.64,3.64,0,0,1-1.2,2.8l-11.9,11.8a4.2,4.2,0,0,1-2.8,1.2H17.71l3.8,3.8a4,4,0,1,1-4.8,6.4,4.33,4.33,0,0,1-.8-.8L5.41,30.53a4,4,0,0,1,.06-5.66,4,4,0,0,1,2.74-1.14h22.1l9.6-9.6V7.93a3.64,3.64,0,0,1,1.2-2.8l4-4a4,4,0,0,1,5.6,0l23.6,23.8a3.87,3.87,0,0,1,.13,5.47,1.59,1.59,0,0,1-.13.13l-4,4a4.2,4.2,0,0,1-2.8,1.2h-6.3l-9.6,9.6v22.1a4,4,0,0,1-6.8,2.8l-17-17-21,21A4,4,0,0,1,.33,69.54a3.75,3.75,0,0,1,.78-.81l.1-.1L25,44.83a3.87,3.87,0,0,1,5.47-.13l.13.13,13,13V43.63a3.64,3.64,0,0,1,1.2-2.8l12-11.9a4.2,4.2,0,0,1,2.8-1.2h6.3L47.81,9.63Z" transform="translate(0.43 0.01)"/>
</svg>
