<svg xmlns="http://www.w3.org/2000/svg" viewBox="0 0 467.3 466.8">
	<style type="text/css">.st0{fill:#FFFFFF;}</style>
	<g>
		<g>
			<path class="st0" d="M357,234.6c49.1-49.1,90.9-92.3,107.9-113.9C435.3,83.6,384.4,34.3,346.4,2.3c-26.8,23.8-68.6,63.9-114,109.3
				L116.2,0C87.8,22.3,22.3,87.7,0,116.1c21.3,22.8,62.4,66.8,111.8,116.1C63.3,280.5,23.2,323.7,2.3,346
				c22.9,28.8,89.7,95.6,118.6,118.4l114-109.3c46.4,46.3,88.9,87.3,116.2,111.6c37.3-31.2,87.2-79.5,116.2-116
				C449.8,328.8,407.2,284.7,357,234.6z"/>
		</g>
	</g>
</svg>
