<?xml version="1.0" encoding="utf-8"?>
<!-- Generator: Adobe Illustrator 25.2.1, SVG Export Plug-In . SVG Version: 6.00 Build 0)  -->
<svg version="1.1" id="Layer_1_Image" xmlns="http://www.w3.org/2000/svg" xmlns:xlink="http://www.w3.org/1999/xlink" x="0px"
	 y="0px" viewBox="0 0 164 164" style="enable-background:new 0 0 164 164;" xml:space="preserve">
<path d="M0.8,164l4.5-5.1l36.2-41.4l22.5-25.8l0.5-0.6L1,0h1h46.1c0.5,0,1,0.2,1.2,0.6l41.1,58.8c0.2,0.3,0.4,0.6,0.7,0.9l0.6-0.6
	c9.5-10.9,19.1-21.8,28.6-32.8c7.7-8.8,15.4-17.7,23.2-26.5c0.3-0.3,0.7-0.5,1.1-0.5H157c0.2,0,0.4,0,0.8,0L97.3,69.2l0.5,0.7
	l39.8,56.9l25.3,36.2c0.2,0.2,0.3,0.5,0.5,0.7c-0.1,0.1,0.1,0.3-0.1,0.3h-47.7c0-0.1-0.1-0.2-0.2-0.2l-44.3-63.4
	c-0.1-0.2-0.3-0.3-0.4-0.5c-0.2,0.2-0.4,0.4-0.5,0.6l-6.1,6.9l-36.8,42.1L14.5,164H0.8z M21.6,10.7c0.2,0.3,0.3,0.5,0.5,0.7
	l20.5,29.3L78.5,92c9.7,13.8,19.4,27.7,29,41.5c4.5,6.4,8.9,12.8,13.4,19.1c0.2,0.4,0.6,0.6,1.1,0.6c6.7,0,13.5,0,20.2,0
	c0.2,0,0.4,0,0.7,0c-0.2-0.3-0.4-0.6-0.5-0.8l-12.9-18.4L83.6,68.4c-13.3-19-26.6-38.1-39.9-57.1c-0.2-0.4-0.7-0.6-1.2-0.6
	c-6.7,0-13.3,0-20,0L21.6,10.7z"/>
</svg>
