<svg xmlns="http://www.w3.org/2000/svg" viewBox="0 0 491.8 409.3">
	<style type="text/css">.st0{fill:#FFFFFF;}.st1{fill:#FF2E63;}</style>
	<g>
		<g>
			<g>
				<path class="st0" d="M355.3,161.9l-52.3-51.3l-52.4,59.3l8.1-160.2H152.4l8.1,160.2L108,110.6l-52.3,51.3l153.9,144.4
					L355.3,161.9z M334.5,298.6l-2,59.4H78.4l-2-59.4H0l14.5,110.6h382l14.5-110.6H334.5z"/>
			</g>
		</g>
	</g>
	<g>
		<g>
			<g>
				<path class="st1" d="M299.6,0v175.6l175.4-8.4L491.8,0H299.6z"/>
			</g>
		</g>
	</g>
	<g>
		<g>
			<g>
				<path class="st0" d="M374.1,46.2H356v0.2l-31.4,46l1.1,10.1h30.3v15.1h18.1v-15.1h8V89.7h-8L374.1,46.2L374.1,46.2z M355.9,89.6
					h-14.1l13-20.3l1.1-1.7V89.6z M456.9,46.2h-23.4l-16.9,22.4l-6.6,9.1V46.2h-18.9v71.3H410V98.7l7.8-7.7l16.7,26.6h22.4
					l-26.5-39.8L456.9,46.2z"/>
			</g>
		</g>
	</g>
</svg>
